0
SECTION
2
HEADER
9
$INSUNITS
70
4
9
$ACADVER
1
AC1014
9
$HANDSEED
5
FFFF
0
ENDSEC
0
SECTION
2
TABLES
0
TABLE
2
VPORT
5
8
100
AcDbSymbolTable
0
ENDTAB
0
TABLE
2
LTYPE
5
5
100
AcDbSymbolTable
0
LTYPE
5
14
100
AcDbSymbolTableRecord
100
AcDbLinetypeTableRecord
2
BYBLOCK
70
0
0
LTYPE
5
15
100
AcDbSymbolTableRecord
100
AcDbLinetypeTableRecord
2
BYLAYER
70
0
0
ENDTAB
0
TABLE
2
LAYER
5
2
100
AcDbSymbolTable
70
2
0
LAYER
5
50
100
AcDbSymbolTableRecord
100
AcDbLayerTableRecord
2
0
70
0
6
CONTINUOUS
0
ENDTAB
0
TABLE
2
STYLE
5
3
100
AcDbSymbolTable
70
1
0
STYLE
5
11
100
AcDbSymbolTableRecord
100
AcDbTextStyleTableRecord
2
STANDARD
70
0
0
ENDTAB
0
TABLE
2
VIEW
5
6
100
AcDbSymbolTable
70
0
0
ENDTAB
0
TABLE
2
UCS
5
7
100
AcDbSymbolTable
70
0
0
ENDTAB
0
TABLE
2
APPID
5
9
100
AcDbSymbolTable
70
2
0
APPID
5
12
100
AcDbSymbolTableRecord
100
AcDbRegAppTableRecord
2
ACAD
70
0
0
ENDTAB
0
TABLE
2
DIMSTYLE
5
A
100
AcDbSymbolTable
70
1
0
ENDTAB
0
TABLE
2
BLOCK_RECORD
5
1
100
AcDbSymbolTable
70
1
0
BLOCK_RECORD
5
1F
100
AcDbSymbolTableRecord
100
AcDbBlockTableRecord
2
*MODEL_SPACE
0
BLOCK_RECORD
5
1B
100
AcDbSymbolTableRecord
100
AcDbBlockTableRecord
2
*PAPER_SPACE
0
ENDTAB
0
ENDSEC
0
SECTION
2
BLOCKS
0
BLOCK
5
20
100
AcDbEntity
100
AcDbBlockBegin
2
*MODEL_SPACE
0
ENDBLK
5
21
100
AcDbEntity
100
AcDbBlockEnd
0
BLOCK
5
1C
100
AcDbEntity
100
AcDbBlockBegin
2
*PAPER_SPACE
0
ENDBLK
5
1D
100
AcDbEntity
100
AcDbBlockEnd
0
ENDSEC
0
SECTION
2
ENTITIES
0
CIRCLE
5
100
100
AcDbEntity
8
0
100
AcDbCircle
10
89.156854249492326
20
59.156854249492397
30
0
40
1.5000000000000036
210
0
220
-0
230
1
0
CIRCLE
5
101
100
AcDbEntity
8
0
100
AcDbCircle
10
-89.156854249492511
20
-59.156854249492511
30
0
40
1.5000000000000036
210
0
220
-0
230
1
0
CIRCLE
5
102
100
AcDbEntity
8
0
100
AcDbCircle
10
89.156854249492312
20
-59.156854249492419
30
0
40
1.5000000000000036
210
0
220
-0
230
1
0
CIRCLE
5
103
100
AcDbEntity
8
0
100
AcDbCircle
10
-3.4972025275692431e-14
20
61.499999999999986
30
0
40
1.5
210
0
220
-0
230
1
0
CIRCLE
5
104
100
AcDbEntity
8
0
100
AcDbCircle
10
-89.156854249492483
20
59.156854249492525
30
0
40
1.5000000000000036
210
0
220
-0
230
1
0
CIRCLE
5
105
100
AcDbEntity
8
0
100
AcDbCircle
10
-5.3290705182007514e-14
20
-61.499999999999986
30
0
40
1.5
210
0
220
-0
230
1
0
LWPOLYLINE
5
106
100
AcDbEntity
8
0
100
AcDbPolyline
90
24
70
1
43
0.0
10
89.311612773897124
20
56.411212284646275
42
2.234164130430476
10
86.411212284646183
20
59.31161277389716
42
0.11662231524589597
10
83.499999999999915
20
59.999999999999972
10
2.3048861143231925
20
59.999999999999993
42
1.8439088914585715
10
-2.3048861143232595
20
59.999999999999993
10
-83.499999999999972
20
60.000000000000007
42
0.11662231524589987
10
-86.411212284646354
20
59.311612773897124
42
2.2341641304306505
10
-89.311612773897124
20
56.411212284646382
42
0.11662231524589906
10
-90
20
53.500000000000021
10
-90.000000000000014
20
-53.500000000000007
42
0.1166223152459003
10
-89.311612773897124
20
-56.411212284646375
42
2.2341641304306745
10
-86.411212284646354
20
-59.311612773897082
42
0.11662231524590171
10
-83.499999999999957
20
-59.999999999999972
10
-72.142808352644465
20
-59.999999999999986
42
-1.2909944487358049
10
-60.523858314022192
20
-59.999999999999993
10
-2.3048861143232813
20
-60
42
1.843908891458558
10
2.3048861143231787
20
-60.000000000000014
10
60.523858314022249
20
-60.000000000000014
42
-1.2909944487358151
10
72.142808352644479
20
-60.000000000000028
10
83.499999999999972
20
-60.000000000000028
42
0.11662231524589296
10
86.411212284646197
20
-59.311612773897224
42
2.234164130430432
10
89.311612773897139
20
-56.411212284646282
42
0.11662231524589529
10
90
20
-53.500000000000021
10
89.999999999999986
20
53.500000000000007
42
0.11662231524589624
0
ENDSEC
0
SECTION
2
OBJECTS
0
DICTIONARY
5
C
100
AcDbDictionary
3
ACAD_GROUP
350
D
3
ACAD_MLINESTYLE
350
17
0
DICTIONARY
5
D
100
AcDbDictionary
0
DICTIONARY
5
1A
330
C
100
AcDbDictionary
0
DICTIONARY
5
17
100
AcDbDictionary
0
ENDSEC
0
EOF
